# xmcd CD database file
#
# Track frame offsets:
#	150
#	28355
#	63223
#	84189
#	103411
#	130033
#	147845
#	165679
#	187126
#	209968
#
# Disc length: 3041 seconds
#
# Revision: 0
# Processed by: cddbd v1.5.2PL0 Copyright (c) Steve Scherf et al.
# Submitted via: CDex 1.70beta2
#
DISCID=970bdf0a
DTITLE=Kenny Drew Trio - The Days Of Wine And Roses
DYEAR=1900
DGENRE=Jazz
TTITLE0=The Day Of Wine And Roses
TTITLE1=It Could Happen To You
TTITLE2=Someday My Prince Will Come
TTITLE3=Nature Boy
TTITLE4=It Might As Well Be Spring
TTITLE5=Sometimes I Feel Like Motherless Child
TTITLE6=Fly Me To The Moon
TTITLE7=Easy Living
TTITLE8=I Don't Know What Time It was
TTITLE9=There Is No Greater Love
EXTD=
EXTT0=
EXTT1=
EXTT2=
EXTT3=
EXTT4=
EXTT5=
EXTT6=
EXTT7=
EXTT8=
EXTT9=
PLAYORDER=
